<svg width="24" height="24" viewBox="0 0 24 24" fill="none" xmlns="http://www.w3.org/2000/svg">
<path d="M22.354 11.646C22.4006 11.6924 22.4375 11.7476 22.4627 11.8084C22.4879 11.8691 22.5009 11.9342 22.5009 12C22.5009 12.0658 22.4879 12.1309 22.4627 12.1916C22.4375 12.2524 22.4006 12.3076 22.354 12.354L18.354 16.354C18.3075 16.4005 18.2523 16.4374 18.1916 16.4625C18.1308 16.4877 18.0657 16.5006 18 16.5006C17.8672 16.5006 17.7399 16.4479 17.646 16.354C17.5521 16.2601 17.4994 16.1328 17.4994 16C17.4994 15.8672 17.5521 15.7399 17.646 15.646L20.793 12.5H2C1.86739 12.5 1.74021 12.4473 1.64645 12.3536C1.55268 12.2598 1.5 12.1326 1.5 12C1.5 11.8674 1.55268 11.7402 1.64645 11.6464C1.74021 11.5527 1.86739 11.5 2 11.5H20.793L17.646 8.354C17.5521 8.26011 17.4994 8.13278 17.4994 8C17.4994 7.86722 17.5521 7.73989 17.646 7.646C17.7399 7.55211 17.8672 7.49937 18 7.49937C18.1328 7.49937 18.2601 7.55211 18.354 7.646L22.354 11.646Z" fill="white"/>
</svg>
