<svg width="256" height="256" viewBox="0 0 256 256" fill="none" xmlns="http://www.w3.org/2000/svg">
  <defs>
    <linearGradient id="bg" x1="32" y1="24" x2="224" y2="232" gradientUnits="userSpaceOnUse">
      <stop stop-color="#FF4A5E"/>
      <stop offset="1" stop-color="#C81E37"/>
    </linearGradient>
    <linearGradient id="accent" x1="86" y1="66" x2="174" y2="190" gradientUnits="userSpaceOnUse">
      <stop stop-color="#FFD85A"/>
      <stop offset="1" stop-color="#F4AF00"/>
    </linearGradient>
  </defs>
  <rect x="16" y="16" width="224" height="224" rx="56" fill="url(#bg)"/>
  <path d="M84 68H174V92H112V116H164V139H112V188H84V68Z" fill="url(#accent)"/>
  <path d="M142 68H170C193 68 208 79 208 101C208 119 197 131 178 134L210 188H178L150 139H142V188H114V68H142ZM142 92V117H169C177 117 181 112 181 104C181 96 176 92 167 92H142Z" fill="url(#accent)"/>
</svg>
